<svg xmlns="http://www.w3.org/2000/svg" width="533.333" height="533.333" version="1" viewBox="0 0 400 400"><path d="M68.6 28.6C37.3 60 37.8 59.3 42.5 66.2c1.4 2 2.5 3.9 2.5 4.2 0 .3 1.3 2.8 3 5.4C54.6 86.6 63.6 110 65.7 122c1 5.5.6 20.9-.6 27.5-1.7 9.3-1.8 9.7-3.2 14.5-.7 2.5-1.3 5-1.4 5.5-1 4.5-7.7 17.9-12.5 24.8-7.2 10.5-9.6 15.1-11.5 22.3-8.7 33.5 2.6 73.2 27.9 97.8 12.3 11.9 22.9 18.2 48.6 29.1 14.4 6.1 44.2 20.7 51.2 25.1 18.6 11.6 28.8 20.2 28.8 24.2 0 3.3 3.8 7.2 7 7.2 3.3 0 7-3.4 7-6.3 0-8.6 31.1-28.6 72.5-46.7 29.4-12.9 33.6-14.9 40.4-19.5 23.8-15.8 40.6-41.5 45.5-70 1.4-7.8 1.5-27.3.2-32.5-.3-1.4-.8-3.8-1-5.3-1.1-6.8-4.3-13.5-11.1-23.6-7.9-11.8-12.3-21.4-15.4-33.6-7.3-28.3-4.9-47.5 9.6-77.5 3-6.3 7-13.7 8.7-16.5 4.4-6.9 4.8-8.2 3.2-11.3-.8-1.5-13.8-15-28.8-30C308.5 5.1 302.9 0 300.7 0c-1.5 0-4.7 1.5-7.4 3.6-2.7 2-6.8 4.5-9.2 5.6-5.2 2.2-18.7 4.5-25.1 4.2-2.5-.1-8-.3-12.3-.4-15.6-.6-31.9-4.6-39.9-10-5-3.4-8.6-3.8-11.9-1.1-4.3 3.3-10.3 5.8-18.9 7.9-15.3 3.8-38.9 4.6-51.1 1.8-7.2-1.6-16.7-6.3-20.5-10-.8-.9-2.8-1.6-4.3-1.6-2.4 0-7.6 4.7-31.5 28.6zm134.9-4.3c3.6 2.3 16 6 24.1 7.2 10.1 1.4 12.6 1.6 24.9 1.9 18.5.5 29.1-1.1 40.8-6.2l5.9-2.5 18.5 18.5 18.6 18.6-6.3 12.7c-6.8 14-13.3 32.7-15.1 43.2-2.4 15-.7 35.6 4.6 53.8 4.4 15.4 8.8 24.6 17.6 36.8 7.5 10.3 9.2 16.5 9.1 33.7-.1 27.7-14.8 53.9-39.2 69.5-3.6 2.3-13.9 7.4-23 11.3-22.6 9.7-22.6 9.7-39.6 18.3-16.5 8.4-30.5 16.8-38.3 22.9-2.8 2.2-5.4 4-5.9 4s-2.7-1.4-4.8-3.1c-13.9-11.2-46.5-28.6-79.4-42.4-21.7-9-28.2-13.3-39.7-25.4-18.1-19.1-25.8-45.7-20.9-71.5 1.4-7.1 2.4-9.2 8.9-19 7.2-10.8 8.2-12.7 12.7-23.1 3-7 6.9-22.3 8.5-33.5 3.5-24.7-1.3-47.6-16.1-77.3l-5.5-10.8 18.6-18.6 18.6-18.5 7.7 3c11.1 4.4 17.9 5.6 33.7 5.6 21.1.2 40.4-2.9 52.5-8.3 5.5-2.4 6-2.4 8.5-.8z"/><path d="M196.4 97.7c-7.5 14.3-11.6 21.2-13 21.7-1.5.6-8.9-1.6-13.6-4-1.6-.8-2.8-1-2.8-.5s.9 6.3 1.9 12.8c2.6 15.7 3 17.9 3.7 23.8.3 2.7.7 5.4.8 5.9 0 .6-.7 1.2-1.7 1.4-1.3.2-4.7-2.5-10.8-8.5-4.9-4.8-9.3-8.9-9.8-9.1-.4-.1-1.3 1.7-2 4-2.5 8.4-4.6 9.1-17.1 5.8-10.4-2.7-10.4-2.7-9.5 1.7 1.1 6 1.4 7.6 2 10.3 3.2 14.5 3 16.3-2.1 18.7-1.9.9-3.4 1.9-3.4 2.3 0 .3 2.8 3 6.2 6 3.3 3 6.6 6 7.2 6.5.6.6 6.4 5.7 12.8 11.3 7.3 6.4 12 11.3 12.4 12.9.4 1.4.2 4.8-.5 7.5-.6 2.7-1.1 5.4-1.1 6 0 1.1 6.1.6 20.5-1.7 1.6-.2 6.1-.7 9.8-1.1 11-1 10.8-1.5 10.2 24.3L196 277h3.5c1.8 0 3.7-.6 4.1-1.2.5-.7.7-6.9.5-13.8-.8-33.1-1.3-31.5 9.4-30.6 3.8.3 8.1.8 9.5 1 3.2.6 10.1 1.5 16.6 2.2l5.2.6-1.3-5.7c-1.5-6.1-1.3-8.8.7-11.6 1.2-1.5 17.8-16.4 32.4-28.9 2.9-2.5 5.3-4.8 5.3-5.2.1-.3-1.8-1.3-4.1-2.1-5.2-1.7-5.2-2.3-2.3-16.7.2-1.4 1-5 1.6-8 .6-3 1.2-6.2 1.5-7.2.4-1.4-1-1.2-10.8 1.3-6.2 1.6-11.8 2.9-12.4 2.9-.7 0-1.9-2.4-2.9-5.3-2.8-8.6-2.3-8.7-13 1.6-5.9 5.6-10.5 9.3-11.3 9-1.4-.6-1.1-7.1.8-15.8.5-2.2 1.2-6.7 1.5-10 .4-3.3.9-6.2 1-6.5.2-.3.6-3 1-6s.9-5.8 1.1-6.2c.2-.3-3 .7-7.2 2.3-5.6 2.2-8 2.6-9.4 1.9-1.7-.9-5-6.3-12.6-20.5-1.7-3.2-3.6-6.1-4.1-6.2-.4-.2-2.2 2.3-3.9 5.4z"/></svg>